<?xml version="1.0" encoding="utf-8"?>
<!-- Generator: Adobe Illustrator 18.1.1, SVG Export Plug-In . SVG Version: 6.00 Build 0)  -->
<svg version="1.1" xmlns="http://www.w3.org/2000/svg" xmlns:xlink="http://www.w3.org/1999/xlink" x="0px" y="0px"
	 viewBox="0 0 289 113" enable-background="new 0 0 289 113" xml:space="preserve">
<g id="MouseOff">
	<path d="M85.3,66.3h-9.8V7.2c0-1.8-0.4-3.1-1.3-3.8c-0.8-0.7-2-1-3.5-1H54.5c-1.1,0.1-2.1,0.4-2.9,1c-0.8,0.6-1.5,1.3-2,1.9
		l-47.1,60c-0.8,1.1-1.4,2.1-1.8,2.9C0.2,69.2,0,70.1,0,71.1v13.5c0,1.5,0.3,2.7,1,3.5c0.7,0.8,1.9,1.3,3.8,1.3h45.8v16.4
		c0,1.9,0.4,3.1,1.3,3.8c0.8,0.7,2,1,3.5,1h15.4c1.5,0,2.7-0.3,3.5-1c0.8-0.7,1.3-2,1.3-3.8V89.3h9.8c1.9,0,3.1-0.4,3.8-1.3
		c0.7-0.8,1-2,1-3.5V71.1c0-1.5-0.3-2.7-1-3.5C88.4,66.8,87.2,66.4,85.3,66.3z M50.5,66.3H26.9l23.6-30.8V66.3z M145.5,0
		c-3.6,0-7.4,0.5-11.2,1.4c-3.8,0.9-7.5,2.4-11,4.3c-3.5,1.9-6.7,4.4-9.5,7.3s-5,6.4-6.7,10.5c-1.6,4-2.5,8.7-2.5,13.8v38.5
		c0,5.2,0.9,9.8,2.5,13.8c1.6,4,3.9,7.5,6.7,10.5s6,5.4,9.5,7.3c3.5,1.9,7.2,3.3,11,4.3c3.8,0.9,7.5,1.4,11.2,1.4
		c3.7,0,7.4-0.5,11.3-1.4c3.8-0.9,7.5-2.4,11-4.3c3.5-1.9,6.7-4.4,9.5-7.3c2.8-3,5-6.4,6.7-10.5c1.6-4,2.5-8.7,2.5-13.8V37.3
		c0-5.2-0.9-9.8-2.5-13.8c-1.6-4-3.9-7.5-6.7-10.5c-2.8-3-6-5.4-9.5-7.3c-3.5-1.9-7.2-3.3-11-4.3C152.9,0.5,149.1,0,145.5,0z
		 M162.5,72.1c0,3.5-0.8,6.6-2.2,9.3c-1.4,2.7-3.4,4.8-6,6.3c-2.6,1.5-5.5,2.3-8.9,2.3c-3.4,0-6.3-0.8-8.8-2.3
		c-2.5-1.5-4.5-3.6-5.9-6.3c-1.4-2.7-2.1-5.8-2.2-9.3V40.9c0-3.5,0.7-6.6,2.2-9.3c1.4-2.7,3.4-4.8,5.9-6.3c2.5-1.5,5.5-2.3,8.8-2.3
		c3.4,0,6.3,0.8,8.9,2.3c2.5,1.5,4.5,3.6,6,6.3c1.4,2.7,2.2,5.8,2.2,9.3V72.1z M284.2,66.3h-9.8V7.2c0-1.8-0.4-3.1-1.3-3.8
		c-0.8-0.7-2-1-3.5-1h-16.2c-1.1,0.1-2.1,0.4-3,1c-0.8,0.6-1.5,1.3-2,1.9l-47.1,60c-0.8,1.1-1.4,2.1-1.9,2.9
		c-0.4,0.9-0.6,1.8-0.6,2.8v13.5c0,1.5,0.3,2.7,1,3.5c0.7,0.8,1.9,1.3,3.8,1.3h45.8v16.4c0,1.9,0.4,3.1,1.3,3.8c0.8,0.7,2,1,3.5,1
		h15.4c1.5,0,2.7-0.3,3.5-1c0.8-0.7,1.3-2,1.3-3.8V89.3h9.8c1.9,0,3.1-0.4,3.8-1.3c0.7-0.8,1-2,1-3.5V71.1c0-1.5-0.3-2.7-1-3.5
		C287.4,66.8,286.1,66.4,284.2,66.3z M249.5,66.3h-23.6l23.6-30.8V66.3z"/>
</g>
<g id="MouseOver" display="none">
</g>
</svg>
