<?xml version="1.0" encoding="utf-8"?>
<!-- Generator: Adobe Illustrator 18.1.1, SVG Export Plug-In . SVG Version: 6.00 Build 0)  -->
<svg version="1.1" xmlns="http://www.w3.org/2000/svg" xmlns:xlink="http://www.w3.org/1999/xlink" x="0px" y="0px"
	 viewBox="0 0 16 16" enable-background="new 0 0 16 16" xml:space="preserve">
<g id="MouseOff">
	<path fill-rule="evenodd" clip-rule="evenodd" d="M5.6,15.5l-5.1-5.1c-0.7-0.7-0.7-1.8,0-2.4l6.8-6.8C8,0.6,9.3,0,10.2,0h4
		C15.2,0,16,0.8,16,1.7v4c0,0.9-0.5,2.3-1.2,2.9L8,15.5C7.3,16.2,6.2,16.2,5.6,15.5z M13.7,4c0-0.9-0.8-1.7-1.7-1.7
		c-1,0-1.7,0.8-1.7,1.7c0,1,0.8,1.7,1.7,1.7C12.9,5.8,13.7,5,13.7,4z"/>
</g>
<g id="MouseOver" display="none">
</g>
</svg>
