<?xml version="1.0" encoding="utf-8"?>
<!-- Generator: Adobe Illustrator 18.1.1, SVG Export Plug-In . SVG Version: 6.00 Build 0)  -->
<svg version="1.1" xmlns="http://www.w3.org/2000/svg" xmlns:xlink="http://www.w3.org/1999/xlink" x="0px" y="0px"
	 viewBox="0 0 40 40" enable-background="new 0 0 40 40" xml:space="preserve">
<g id="MouseOff">
	<path fill-rule="evenodd" clip-rule="evenodd" d="M2.9,30.5C-2.8,21,0.1,8.7,9.5,2.9s21.7-2.8,27.5,6.6s2.8,21.7-6.6,27.5
		S8.7,39.9,2.9,30.5z M29,34.7c8.1-5,10.6-15.6,5.7-23.7C29.7,2.9,19.1,0.4,11,5.3C2.9,10.3,0.4,20.9,5.3,29
		C10.3,37.1,20.9,39.6,29,34.7z M17.3,32.3c-0.2-0.1-0.3-0.4-0.3-0.9v-4.1c0-0.4,0.1-0.7,0.3-0.9c0.2-0.2,0.5-0.2,0.8-0.2h4.1
		c0.3,0,0.6,0.1,0.8,0.2c0.2,0.1,0.3,0.4,0.3,0.9v4.1c0,0.4-0.1,0.7-0.3,0.9c-0.2,0.1-0.4,0.2-0.8,0.2h-4.1
		C17.7,32.5,17.5,32.4,17.3,32.3z M18.6,24.7c-0.1,0-0.2-0.1-0.3-0.3c0-0.2-0.1-0.4-0.1-0.7c-0.3-2.4-0.5-4.5-0.7-6.2
		c-0.2-1.7-0.3-3.1-0.5-4.2c-0.1-1.1-0.2-1.9-0.3-2.5c-0.1-0.6-0.1-1.1-0.1-1.3c0-0.3,0-0.4-0.1-0.5s0-0.1,0-0.1
		c0-0.3,0.1-0.5,0.3-0.6C17,8.1,17.3,8,17.7,8.1h5c0.4,0,0.6,0,0.8,0.1c0.2,0.1,0.3,0.3,0.3,0.6c0,0,0,0,0,0.1c0,0.1,0,0.2-0.1,0.5
		c0,0.3-0.1,0.7-0.1,1.3c-0.1,0.6-0.2,1.5-0.3,2.5c-0.1,1.1-0.3,2.5-0.4,4.2c-0.2,1.7-0.4,3.8-0.7,6.2c0,0.3-0.1,0.5-0.1,0.7
		c0,0.2-0.1,0.3-0.3,0.3c-0.1,0-0.3,0.1-0.6,0.1h-1.8C19,24.8,18.7,24.8,18.6,24.7z"/>
</g>
<g id="MouseOver" display="none">
</g>
</svg>
