<?xml version="1.0" encoding="utf-8"?>
<!-- Generator: Adobe Illustrator 18.1.1, SVG Export Plug-In . SVG Version: 6.00 Build 0)  -->
<svg version="1.1" xmlns="http://www.w3.org/2000/svg" xmlns:xlink="http://www.w3.org/1999/xlink" x="0px" y="0px"
	 viewBox="0 0 52 42" enable-background="new 0 0 52 42" xml:space="preserve">
<g id="MouseOff">
	<path fill-rule="evenodd" clip-rule="evenodd" d="M3.1,32C-3,22.1,0.1,9.2,10,3.1C15,0,20.7-0.7,26,0.6C34.6-1.5,44,2,48.9,10
		c6.1,9.9,3,22.8-6.9,28.9c-5,3.1-10.7,3.8-16,2.5C17.4,43.5,8,40,3.1,32z M22,40l4-0.7c1.7-0.5,3.3-1.2,4.9-2.1
		c8.9-5.5,11.8-17.2,6.3-26.1C34.6,6.8,30.5,3.9,26,2.7L22,2c-3.7-0.2-7.5,0.7-10.9,2.8C2.1,10.3-0.7,22,4.8,30.9
		C8.6,37.1,15.3,40.3,22,40z M40.9,37.2c8.9-5.5,11.8-17.2,6.3-26.1C43.4,4.9,36.7,1.7,30,2c3.6,1.7,6.7,4.4,8.9,8
		c6.1,9.9,3,22.8-6.9,28.9c-0.7,0.4-1.3,0.8-2,1.1C33.7,40.2,37.5,39.3,40.9,37.2z M16,29.5v-2.9h-2.3v-1.9H16V12.5h6.5
		c1.8,0,3.2,0.5,4.2,1.4c1,0.9,1.5,2.2,1.5,3.7c0,1.5-0.5,2.8-1.5,3.7c-1,0.9-2.4,1.4-4.2,1.4h-4.2v2h6.4v1.9h-6.4v2.9H16z
		 M25.1,19.9c0.6-0.6,0.9-1.4,0.9-2.3c0-0.9-0.3-1.7-0.9-2.4c-0.6-0.6-1.4-0.9-2.6-0.9h-4.2v6.6h4.2C23.7,20.9,24.5,20.6,25.1,19.9z
		"/>
</g>
<g id="MouseOver" display="none">
</g>
</svg>
