<?xml version="1.0" encoding="utf-8"?>
<!-- Generator: Adobe Illustrator 18.1.1, SVG Export Plug-In . SVG Version: 6.00 Build 0)  -->
<svg version="1.1" xmlns="http://www.w3.org/2000/svg" xmlns:xlink="http://www.w3.org/1999/xlink" x="0px" y="0px"
	 viewBox="0 0 72 42" enable-background="new 0 0 72 42" xml:space="preserve">
<g id="MouseOff">
	<path fill-rule="evenodd" clip-rule="evenodd" d="M1.6,42L0,40.4V1.6L1.6,0h68.8L72,1.6v38.8L70.4,42H61v-2h8.6l0.4-0.4V2.4L69.6,2
		H57v7.4l3.3-1.5l3,1.5V5.7h2v7l-5-2.5L55,12.6V2H2.4L2,2.4v37.2L2.4,40H53v2H1.6z M54,34v-2h-1v-2h1v-7h5.6l1.5,3l-1.5,3H56v1h2v2
		h-2v2H54z M9,29.3v-2h32.3v2H9z M58.4,27l0.5-1l-0.5-1H56v2H58.4z M9,24.3v-2h32.3v2H9z M9,19.3v-2h32.3v2H9z M9,14.3v-2h23v2H9z"
		/>
</g>
<g id="MouseOver" display="none">
</g>
</svg>
