<?xml version="1.0" encoding="utf-8"?>
<!-- Generator: Adobe Illustrator 18.1.1, SVG Export Plug-In . SVG Version: 6.00 Build 0)  -->
<svg version="1.1" xmlns="http://www.w3.org/2000/svg" xmlns:xlink="http://www.w3.org/1999/xlink" x="0px" y="0px"
	 viewBox="0 0 16 16" enable-background="new 0 0 16 16" xml:space="preserve">
<g id="MouseOff">
	<path fill-rule="evenodd" clip-rule="evenodd" d="M0.3,15.7c-0.4-0.4-0.4-1,0-1.4L6.6,8L0.3,1.7c-0.4-0.4-0.4-1,0-1.4
		c0.4-0.4,1-0.4,1.4,0L8,6.6l6.3-6.3c0.4-0.4,1-0.4,1.4,0c0.4,0.4,0.4,1,0,1.4L9.4,8l6.3,6.3c0.4,0.4,0.4,1,0,1.4
		c-0.4,0.4-1,0.4-1.4,0L8,9.4l-6.3,6.3C1.3,16.1,0.7,16.1,0.3,15.7z"/>
</g>
<g id="MouseOver" display="none">
</g>
</svg>
