<?xml version="1.0" encoding="utf-8"?>
<!-- Generator: Adobe Illustrator 18.1.1, SVG Export Plug-In . SVG Version: 6.00 Build 0)  -->
<svg version="1.1" xmlns="http://www.w3.org/2000/svg" xmlns:xlink="http://www.w3.org/1999/xlink" x="0px" y="0px"
	 viewBox="0 0 32 32" enable-background="new 0 0 32 32" xml:space="preserve">
<g id="MouseOff">
	<path fill-rule="evenodd" clip-rule="evenodd" d="M2.1,23.9C-2.3,16.2,0.4,6.4,8.1,2.1c7.7-4.3,17.5-1.6,21.8,6.1
		c4.3,7.7,1.6,17.5-6.1,21.8S6.4,31.6,2.1,23.9z M10.8,22.1c0.3-0.3,0.5-0.7,0.5-1.2c0-0.4-0.2-0.9-0.5-1.1
		c-0.3-0.3-0.7-0.5-1.2-0.5c-0.5,0-0.9,0.2-1.2,0.5c-0.3,0.3-0.5,0.7-0.5,1.1c0,0.5,0.2,0.9,0.5,1.2c0.3,0.3,0.7,0.5,1.2,0.5
		C10,22.6,10.4,22.5,10.8,22.1z M24.4,22.1c0.3-0.3,0.5-0.7,0.5-1.2c0-0.4-0.2-0.9-0.5-1.1c-0.3-0.3-0.7-0.5-1.2-0.5
		c-0.5,0-0.9,0.2-1.2,0.5c-0.3,0.3-0.5,0.7-0.5,1.1c0,0.5,0.2,0.9,0.5,1.2c0.3,0.3,0.7,0.5,1.2,0.5C23.7,22.6,24.1,22.5,24.4,22.1z
		 M8,19.4c0.4-0.4,0.9-0.6,1.5-0.6c0.6,0,1.1,0.3,1.5,0.6c0.3,0.3,0.5,0.8,0.6,1.3h6c0.3,0,0.6-0.1,0.8-0.3c0.2-0.2,0.3-0.5,0.3-0.8
		v-9.2c0-0.3-0.1-0.6-0.3-0.8c-0.2-0.2-0.5-0.3-0.8-0.3H6.6C6.3,9.3,6,9.5,5.8,9.7c-0.2,0.2-0.3,0.5-0.3,0.8v9.2
		c0,0.3,0.1,0.6,0.3,0.8c0.2,0.2,0.5,0.3,0.8,0.3h0.8C7.5,20.2,7.7,19.8,8,19.4z M21.7,19.4c0.4-0.4,0.9-0.6,1.5-0.6
		c0.6,0,1.1,0.3,1.5,0.6c0.3,0.3,0.6,0.8,0.6,1.3H28c0.3,0,0.5-0.2,0.5-0.5v-3.5c0,0,0-0.3-0.1-0.3l-3-4.9c-0.1-0.1-0.2-0.3-0.4-0.3
		h-5.5c-0.3,0-0.5,0.2-0.5,0.5v8.5c0,0.3,0.2,0.5,0.5,0.5H21C21.1,20.2,21.3,19.8,21.7,19.4z M21.4,16.2v-3h3l0.1,0.2l1.3,2.3
		l0.3,0.5H21.4z"/>
</g>
<g id="MouseOver" display="none">
</g>
</svg>
