<?xml version="1.0" encoding="utf-8"?>
<!-- Generator: Adobe Illustrator 18.1.1, SVG Export Plug-In . SVG Version: 6.00 Build 0)  -->
<svg version="1.1" xmlns="http://www.w3.org/2000/svg" xmlns:xlink="http://www.w3.org/1999/xlink" x="0px" y="0px"
	 viewBox="0 0 113.7 42" enable-background="new 0 0 113.7 42" xml:space="preserve">
<g id="MouseOff">
	<path fill-rule="evenodd" clip-rule="evenodd" d="M34.5,36.3l0-0.5h-4.8c-2,0-3.7-1.7-3.7-3.7V3.7c0-2,1.7-3.7,3.7-3.7h35.6
		c2,0,3.7,1.7,3.7,3.7v2h9.9c1.6,0,3.2,0.9,3.9,2.3c1.1,2.2,2.8,5.7,4.3,8.9c1.2,2.7,2.7,6.1,2.7,7.2l0,0.1v7.9c0,2-1.7,3.7-3.7,3.7
		h-4.5l0,0.5c-0.7,3.3-3.5,5.7-7,5.7c-3.5,0-6.4-2.4-7-5.7l0-0.5H48.8l-0.1,0.5C48.1,39.6,45,42,41.5,42C38,42,35.1,39.6,34.5,36.3z
		 M46.9,34.8c0-2.9-2.5-5.2-5.4-5.2c-2.9,0-5.2,2.3-5.2,5.2c0,2.9,2.3,5.2,5.2,5.2C44.5,40,46.9,37.7,46.9,34.8z M79.5,34.8
		c0-2.9-2.3-5.2-5.2-5.2c-2.9,0-5.2,2.3-5.2,5.2c0,2.9,2.3,5.2,5.2,5.2C77.3,40,79.5,37.7,79.5,34.8z M71.1,34.8
		c0-1.8,1.4-3.2,3.2-3.2c1.8,0,3.2,1.4,3.2,3.2c0,1.8-1.4,3.2-3.2,3.2C72.6,38.1,71.1,36.6,71.1,34.8z M39.5,37
		c-0.6-0.5-0.9-1.3-0.9-2.2c0-1.7,1.4-3.2,3-3.2c1.8,0,3.2,1.4,3.2,3.2c0,0.9-0.4,1.7-1,2.2c-0.6,0.5-1.4,0.8-2.2,0.8
		C40.8,37.8,40,37.5,39.5,37z M75.6,34.8c0-0.7-0.5-1.2-1.2-1.2c-0.7,0-1.2,0.5-1.2,1.2c0,0.7,0.5,1.2,1.2,1.2
		C75.1,36.1,75.6,35.5,75.6,34.8z M14.3,34.8c0-0.5,0.4-1,1-1h7.4c0.5,0,1,0.5,1,1c0,0.6-0.5,1-1,1h-7.4
		C14.8,35.8,14.3,35.4,14.3,34.8z M42.4,35.5c0.2-0.1,0.3-0.4,0.3-0.7c0-0.7-0.5-1.2-1.2-1.2c-0.4,0-1,0.5-1,1.2
		c0,0.3,0.1,0.6,0.3,0.7c0.2,0.2,0.4,0.3,0.7,0.3C41.9,35.8,42.2,35.7,42.4,35.5z M34.4,33.8l0-0.5c0.7-3.3,3.5-5.7,7-5.7
		c3.5,0,6.5,2.4,7.3,5.7l0.1,0.5h18.5l0-0.5c0.7-3.3,3.5-5.7,7-5.7c3.5,0,6.4,2.4,7,5.7l0,0.5H86c0.9,0,1.7-0.8,1.7-1.7l0-7.9
		c0-0.3-0.5-2-2.6-6.5c-1.4-3.2-3.1-6.7-4.2-8.9c-0.3-0.6-1.2-1.2-2.1-1.2h-9.9v16.5c0,0.6-0.5,1-1,1h-40v6.9c0,0.9,0.8,1.7,1.7,1.7
		H34.4z M0,29.4c0-0.5,0.4-1,1-1h21.7c0.5,0,1,0.5,1,1s-0.5,1-1,1H1C0.4,30.4,0,29.9,0,29.4z M7.2,23.7c0-0.5,0.4-1,1-1h14.6
		c0.5,0,1,0.5,1,1c0,0.6-0.5,1-1,1H8.2C7.6,24.7,7.2,24.3,7.2,23.7z M66.9,23.2V3.7c0-0.9-0.8-1.7-1.7-1.7H29.7
		c-0.9,0-1.7,0.8-1.7,1.7v19.5H66.9z M70.4,20.8V10.1c0-0.6,0.5-1,1-1h6.2c0.9,0,1.6,0.4,2.2,1c0.1,0.1,0.2,0.2,0.2,0.3l4.4,9.9
		c0.3,0.7-0.2,1.4-0.9,1.4H71.4C70.9,21.8,70.4,21.3,70.4,20.8z M82,19.8l-3.7-8.3c-0.3-0.3-0.5-0.3-0.6-0.3h-5.2v8.6H82z
		 M14.3,18.3c0-0.6,0.4-1,1-1h7.4c0.5,0,1,0.4,1,1c0,0.5-0.5,1-1,1h-7.4C14.8,19.3,14.3,18.8,14.3,18.3z"/>
</g>
<g id="MouseOver" display="none">
</g>
</svg>
