<?xml version="1.0" encoding="utf-8"?>
<!-- Generator: Adobe Illustrator 18.1.1, SVG Export Plug-In . SVG Version: 6.00 Build 0)  -->
<svg version="1.1" xmlns="http://www.w3.org/2000/svg" xmlns:xlink="http://www.w3.org/1999/xlink" x="0px" y="0px"
	 viewBox="0 0 36.7 22" enable-background="new 0 0 36.7 22" xml:space="preserve">
<g id="MouseOff">
	<path fill-rule="evenodd" clip-rule="evenodd" d="M1.2,21.5C1,21.3,1,21,1,20.7v-7.4c0-0.2,0-0.4,0.1-0.5c0.1-0.2,0.3-0.3,0.6-0.3
		h0.2V7.3H1.3c-0.4,0-0.7-0.2-0.9-0.5C0.1,6.6,0,6.2,0,5.8V0.5h0.9v5.3C0.9,6,1,6.2,1.1,6.3c0.1,0.1,0.2,0.1,0.2,0.1h0.6V0.5h0.9
		v5.9h0.6c0.1,0,0.2,0,0.2-0.1C3.7,6.2,3.8,6,3.8,5.8V0.5h0.9v5.3c0,0.4-0.1,0.7-0.3,1C4.1,7.1,3.8,7.3,3.4,7.3H2.8v5.1H3
		c0.2,0,0.4,0.1,0.6,0.3c0.1,0.1,0.1,0.3,0.1,0.5v7.4c0,0.3-0.1,0.6-0.2,0.8C3.3,21.8,3,22,2.7,22H1.9C1.6,22,1.4,21.8,1.2,21.5z
		 M34.5,21.9c-0.3-0.2-0.5-0.7-0.6-1.4c-0.1-0.6-0.1-1.3-0.1-2c0-1.7,0.1-3.6,0.3-4.5c-0.3,0-0.5-0.1-0.7-0.3
		c-0.3-0.4-0.5-0.9-0.7-1.4C31.9,9.4,33.3,1,36.4,0v14c0.2,1,0.3,2.8,0.3,4.4c0,0.7,0,1.5-0.1,2c-0.1,0.7-0.2,1.1-0.5,1.4
		C36,21.9,35.8,22,35.7,22h-0.8C34.8,22,34.6,22,34.5,21.9z M8.1,15.6C5.6,10.1,8,3.5,13.5,1c5.5-2.5,12-0.1,14.6,5.4
		s0.1,12-5.4,14.6S10.6,21.1,8.1,15.6z M35.7,20.3c0.1-0.5,0.1-1.2,0.1-1.9c0-2.1-0.1-4.4-0.2-4.5c0,0,0,0,0-0.1
		c-0.1-0.1-0.1-0.2-0.2-0.2c0,0-0.1,0-0.2,0.2c-0.1,0.1-0.3,2.5-0.3,4.6c0,0.7,0,1.4,0.1,1.9c0,0.3,0.1,0.6,0.1,0.7h0.5
		C35.6,21,35.6,20.7,35.7,20.3z M21.8,19.2c4.5-2.1,6.5-7.4,4.4-11.9s-7.4-6.5-11.9-4.5c-4.5,2.1-6.5,7.4-4.4,11.9
		S17.3,21.2,21.8,19.2z M11.7,13.9c-1.6-3.5-0.1-7.7,3.4-9.3c3.5-1.6,7.7-0.1,9.3,3.5c1.6,3.5,0.1,7.7-3.5,9.3
		C17.5,19,13.3,17.4,11.7,13.9z"/>
</g>
<g id="MouseOver" display="none">
</g>
</svg>
