<?xml version="1.0" encoding="utf-8"?>
<!-- Generator: Adobe Illustrator 18.1.1, SVG Export Plug-In . SVG Version: 6.00 Build 0)  -->
<svg version="1.1" xmlns="http://www.w3.org/2000/svg" xmlns:xlink="http://www.w3.org/1999/xlink" x="0px" y="0px"
	 viewBox="0 0 21.3 18.9" enable-background="new 0 0 21.3 18.9" xml:space="preserve">
<g id="MouseOff">
	<path fill-rule="evenodd" clip-rule="evenodd" d="M0.9,0h5.6C7,0,7.4,0.4,7.4,0.9v0.3c0,0,0.2,0,0.3,0C8,0.9,8.5,0.6,9,0.6h8.3
		c3.1,0,2.8,2.8,2.5,3.2c0.5,0.6,0.9,1.6,0.4,2.4c0.3,0.4,0.9,1.4,0.4,2.4c1.1,1.1,0.7,3.3-1.1,3.3l-4.9,0c0.2,1.1,0.5,2.8,0.4,3
		C15,16.3,14,18.2,14,18.3c-0.2,0.3-1.1,0.8-2,0.6c-1.2-0.3-1.3-1-1.3-1.2c0,0,0-2.1,0.1-2.6c-0.6-1.2-2.5-4.5-3.1-4.8
		c-0.1,0.1-0.3,0.1-0.5,0.1H0.9C0.4,10.4,0,10,0,9.4V0.8C0,0.4,0.4,0,0.9,0z M7.5,2.2H7.1v6.6c0.5,0.3,1.1,0.7,1.4,1
		c0.6,0.5,3.2,4.6,3.2,5.1c0,0.5-0.1,2.7-0.1,2.7s0.5,0.6,1.6,0.2c0,0,0.9-1.7,1-3.2c0,0-0.4-2.9-0.7-3.8h5.9c1.5,0,1.2-2.1-0.2-2.3
		l0-0.2c1.4-0.4,0.7-2.1-0.4-2.2L18.8,6c1.4-0.3,0.7-2.1-0.4-2.2l-0.1-0.2c1.1-0.2,0.9-2.1-0.8-2.1H9C8.4,1.5,7.9,2.2,7.5,2.2z"/>
</g>
<g id="MouseOver" display="none">
</g>
</svg>
