<?xml version="1.0" encoding="utf-8"?>
<!-- Generator: Adobe Illustrator 18.1.1, SVG Export Plug-In . SVG Version: 6.00 Build 0)  -->
<svg version="1.1" xmlns="http://www.w3.org/2000/svg" xmlns:xlink="http://www.w3.org/1999/xlink" x="0px" y="0px"
	 viewBox="0 0 95 25" enable-background="new 0 0 95 25" xml:space="preserve">
<g id="MouseOff">
	<path fill-rule="evenodd" clip-rule="evenodd" d="M7,24.7c-0.9-0.2-1.8-0.5-2.6-0.9c-0.8-0.4-1.6-0.9-2.2-1.5
		c-0.7-0.6-1.2-1.3-1.5-2.2C0.2,19.2,0,18.3,0,17.3c0-0.4,0.1-0.7,0.2-0.8c0.1-0.1,0.4-0.2,0.8-0.2h3.5c0.4,0,0.7,0,0.9,0.2
		c0.2,0.1,0.3,0.4,0.4,0.9c0,0.2,0.1,0.5,0.2,0.7c0.1,0.2,0.3,0.5,0.5,0.8c0.2,0.3,0.6,0.5,0.9,0.7c0.4,0.2,0.8,0.3,1.3,0.4
		S9.7,20,10.1,20c0.7,0,1.3-0.1,1.8-0.2c0.5-0.1,1-0.4,1.3-0.7c0.3-0.4,0.5-0.9,0.5-1.5c0-0.5-0.2-0.9-0.5-1.2
		c-0.4-0.3-0.9-0.5-1.5-0.7c-0.6-0.2-1.3-0.4-2-0.5c-0.7-0.2-1.5-0.4-2.3-0.6c-0.9-0.3-1.8-0.6-2.7-1c-0.8-0.4-1.6-0.8-2.3-1.3
		c-0.7-0.5-1.2-1.2-1.6-2C0.5,9.4,0.3,8.4,0.3,7.2c0-1.2,0.3-2.2,0.7-3.1c0.5-0.9,1.1-1.6,2-2.2c0.8-0.6,1.8-1.1,2.8-1.4
		S8,0.1,9.1,0c1.2,0,2.3,0.1,3.5,0.4c1.1,0.3,2.2,0.7,3.1,1.2c0.9,0.6,1.7,1.3,2.2,2.2c0.6,0.9,0.8,1.9,0.9,3.1
		c0,0.4-0.1,0.7-0.2,0.8c-0.1,0.1-0.4,0.2-0.8,0.2h-3.6c-0.3,0-0.6-0.1-0.7-0.3c-0.1-0.2-0.2-0.4-0.3-0.7c-0.1-0.2-0.2-0.3-0.3-0.5
		c-0.1-0.2-0.3-0.4-0.5-0.6c-0.2-0.2-0.5-0.4-0.9-0.5c-0.3-0.1-0.7-0.3-1.1-0.3c-0.4-0.1-0.8-0.1-1.1-0.1c-0.3,0-0.7,0-1,0.1
		C8,5,7.7,5.2,7.3,5.3C7,5.5,6.7,5.7,6.5,6C6.3,6.2,6.2,6.6,6.2,7c0,0.4,0.2,0.8,0.6,1.2C7.1,8.5,7.6,8.8,8.1,9s1.2,0.5,1.8,0.7
		c0.6,0.2,1.2,0.3,1.8,0.5c0.5,0.1,1,0.3,1.3,0.4c0.7,0.2,1.4,0.4,2.1,0.7c0.7,0.3,1.5,0.7,2.1,1.1c0.7,0.5,1.2,1.1,1.6,1.9
		c0.4,0.8,0.6,1.8,0.6,3c0,1.3-0.3,2.4-0.7,3.4c-0.5,1-1.1,1.7-2,2.4c-0.9,0.6-1.9,1.1-3.1,1.4c-1.2,0.3-2.5,0.5-3.9,0.5
		C8.9,25,7.9,24.9,7,24.7z M57.7,24.7c-0.9-0.2-1.8-0.5-2.6-0.9c-0.8-0.4-1.6-1-2.3-1.6c-0.7-0.6-1.2-1.4-1.6-2.3s-0.6-1.9-0.6-3.1
		V8.2c0-1.1,0.2-2.2,0.6-3.1s0.9-1.7,1.6-2.3c0.7-0.7,1.4-1.2,2.3-1.6c0.8-0.4,1.7-0.7,2.6-0.9S59.5,0,60.4,0c0.9,0,1.8,0.1,2.7,0.3
		c0.9,0.2,1.8,0.5,2.6,0.9c0.8,0.4,1.6,1,2.3,1.6c0.7,0.6,1.2,1.4,1.6,2.3c0.4,0.9,0.6,1.9,0.6,3.1v8.6c0,1.1-0.2,2.2-0.6,3.1
		c-0.4,0.9-0.9,1.7-1.6,2.3c-0.7,0.7-1.4,1.2-2.3,1.6c-0.9,0.4-1.7,0.7-2.6,0.9c-0.9,0.2-1.8,0.3-2.7,0.3
		C59.5,25,58.6,24.9,57.7,24.7z M25.4,24.3c-0.2-0.1-0.3-0.4-0.3-0.8V1.6c0-0.4,0.1-0.7,0.3-0.8c0.2-0.1,0.4-0.2,0.8-0.2h3.6
		c0.3,0,0.6,0.1,0.8,0.2c0.2,0.1,0.3,0.4,0.3,0.8v8.2h8.1V1.6c0-0.4,0.1-0.7,0.3-0.8s0.4-0.2,0.8-0.2h3.6c0.3,0,0.6,0.1,0.8,0.2
		c0.2,0.1,0.3,0.4,0.3,0.8v21.8c0,0.4-0.1,0.7-0.3,0.8c-0.2,0.1-0.4,0.2-0.8,0.2H40c-0.3,0-0.6-0.1-0.8-0.2
		c-0.2-0.1-0.3-0.4-0.3-0.8v-8.2h-8.1v8.2c0,0.4-0.1,0.7-0.3,0.8c-0.2,0.1-0.4,0.2-0.8,0.2h-3.6C25.8,24.5,25.6,24.4,25.4,24.3z
		 M76.5,24.3c-0.2-0.1-0.3-0.4-0.3-0.8V1.6c0-0.3,0.1-0.6,0.2-0.8c0.2-0.2,0.4-0.3,0.8-0.3h8.2c2.1,0,3.8,0.4,5.2,1.1
		c1.4,0.7,2.5,1.7,3.2,2.9C94.6,5.8,95,7.3,95,9c0,1.7-0.4,3.2-1.1,4.4c-0.7,1.3-1.8,2.2-3.2,2.9c-1.4,0.7-3.2,1-5.2,1.1h-3.5v6
		c0,0.4-0.1,0.7-0.3,0.8c-0.2,0.1-0.4,0.2-0.8,0.2h-3.6C77,24.5,76.7,24.4,76.5,24.3z M62.5,19.5c0.6-0.3,1.1-0.7,1.4-1.3
		c0.3-0.5,0.5-1.2,0.5-2V8.7c0-0.8-0.2-1.5-0.5-2c-0.3-0.6-0.8-1-1.4-1.3c-0.6-0.3-1.3-0.4-2.1-0.4c-0.8,0-1.5,0.1-2.1,0.4
		c-0.6,0.3-1.1,0.7-1.4,1.3c-0.3,0.5-0.5,1.2-0.5,2v7.5c0,0.8,0.2,1.4,0.5,2c0.3,0.5,0.8,1,1.4,1.3c0.6,0.3,1.3,0.4,2.1,0.4
		C61.2,20,61.9,19.8,62.5,19.5z M87.8,12c0.6-0.3,1-0.7,1.3-1.2c0.3-0.5,0.4-1.1,0.4-1.7c0-0.6-0.1-1.2-0.4-1.7
		c-0.3-0.5-0.7-0.9-1.3-1.2c-0.6-0.3-1.4-0.5-2.3-0.5h-3.5v6.8h3.5C86.4,12.5,87.2,12.3,87.8,12z"/>
</g>
<g id="MouseOver" display="none">
</g>
</svg>
