<?xml version="1.0" encoding="utf-8"?>
<!-- Generator: Adobe Illustrator 18.1.1, SVG Export Plug-In . SVG Version: 6.00 Build 0)  -->
<svg version="1.1" xmlns="http://www.w3.org/2000/svg" xmlns:xlink="http://www.w3.org/1999/xlink" x="0px" y="0px"
	 viewBox="0 0 7.5 8" enable-background="new 0 0 7.5 8" xml:space="preserve">
<g id="MouseOff">
	<path fill-rule="evenodd" clip-rule="evenodd" d="M3,7.8L0.7,6.6C0.3,6.3,0,5.7,0,5.3V2.7c0-0.5,0.3-1,0.7-1.3L3,0.2
		c0.4-0.2,1.1-0.2,1.5,0l2.3,1.3c0.4,0.2,0.7,0.8,0.7,1.3v2.5c0,0.5-0.3,1-0.7,1.3L4.5,7.8C4.1,8.1,3.4,8.1,3,7.8z M4,6.9l2.3-1.3
		c0.1-0.1,0.2-0.3,0.2-0.4V2.7c0-0.1-0.1-0.3-0.2-0.4l0,0L2.3,6.2l1.3,0.7l0,0C3.6,7,3.9,7,4,6.9z M1.3,5.6l3.9-3.9L4,1.1
		c-0.1,0-0.3,0-0.4,0L1.3,2.4C1.2,2.4,1.1,2.6,1.1,2.7v2.6C1.1,5.4,1.2,5.6,1.3,5.6z"/>
</g>
<g id="MouseOver" display="none">
</g>
</svg>
