<?xml version="1.0" encoding="utf-8"?>
<!-- Generator: Adobe Illustrator 18.1.1, SVG Export Plug-In . SVG Version: 6.00 Build 0)  -->
<svg version="1.1" xmlns="http://www.w3.org/2000/svg" xmlns:xlink="http://www.w3.org/1999/xlink" x="0px" y="0px"
	 viewBox="0 0 20 14" enable-background="new 0 0 20 14" xml:space="preserve">
<g id="MouseOff">
	<path fill-rule="evenodd" clip-rule="evenodd" d="M0,13.1v-0.1C0,12.4,0.4,12,0.9,12h18.1c0.5,0,0.9,0.4,0.9,0.9v0.1
		c0,0.5-0.4,0.9-0.9,0.9H0.9C0.4,14,0,13.6,0,13.1z M0,7.1V6.9C0,6.4,0.4,6,0.9,6h18.1C19.6,6,20,6.4,20,6.9v0.1
		C20,7.6,19.6,8,19.1,8H0.9C0.4,8,0,7.6,0,7.1z M0,1.1V0.9C0,0.4,0.4,0,0.9,0h18.1C19.6,0,20,0.4,20,0.9v0.1C20,1.6,19.6,2,19.1,2
		H0.9C0.4,2,0,1.6,0,1.1z"/>
</g>
<g id="MouseOver" display="none">
</g>
</svg>
