<?xml version="1.0" encoding="utf-8"?>
<!-- Generator: Adobe Illustrator 18.1.1, SVG Export Plug-In . SVG Version: 6.00 Build 0)  -->
<svg version="1.1" xmlns="http://www.w3.org/2000/svg" xmlns:xlink="http://www.w3.org/1999/xlink" x="0px" y="0px"
	 viewBox="0 0 60 60" enable-background="new 0 0 60 60" xml:space="preserve">
<g id="MouseOff">
	<path fill-rule="evenodd" clip-rule="evenodd" d="M60,60L0,0h30l30,30V60z M41.7,32.4C41.7,32.4,41.7,32.4,41.7,32.4l6.8-3.6
		c0,0,0.1-0.1,0.1-0.1c0,0,0-0.1,0.1-0.1c0,0,0-0.1-0.1-0.1l-0.9-0.9c-0.1-0.1-0.2-0.1-0.3-0.1c-0.1,0-0.1,0-0.2,0
		c-0.1,0-0.1,0-0.2,0.1l-3.7,2.1l2.1-3.7c0-0.1,0.1-0.1,0.1-0.2c0-0.1,0-0.1,0-0.2c0-0.1,0-0.1-0.1-0.2l-0.6-0.6
		c-0.1-0.1-0.1-0.1-0.2-0.1c-0.1,0-0.1,0-0.2,0c-0.1,0-0.1,0-0.2,0.1l-3.7,2.1l2-3.7c0,0,0-0.1,0.1-0.2c0-0.1,0-0.1,0-0.2
		c0-0.1-0.1-0.2-0.1-0.2l-0.9-0.9c-0.1-0.1-0.1-0.1-0.2-0.1s-0.1,0-0.1,0.1c-0.1,0-0.1,0.1-0.1,0.1l-3.6,6.7c0,0,0,0,0,0.1
		c0,0,0,0.1,0,0.2c0,0.1,0,0.1,0.1,0.2l0.7,0.7c0.1,0.1,0.1,0.1,0.2,0.1c0.1,0,0.1,0,0.2,0c0.1,0,0.1,0,0.1,0l3.5-1.9l-1.9,3.6
		c0,0,0,0,0,0.1c0,0.1,0,0.1,0,0.2c0,0.1,0,0.1,0.1,0.2l0.7,0.7c0.1,0.1,0.1,0.1,0.2,0.1C41.6,32.4,41.6,32.4,41.7,32.4z M35.5,26
		l0.7-0.7c0.1-0.1,0.1-0.1,0.1-0.2c0-0.1,0-0.2-0.1-0.3l-2.7-2.7l1.1-1.1l2.3,2.3c0.1,0.1,0.2,0.1,0.3,0.1c0.1,0,0.1-0.1,0.2-0.1
		l0.7-0.7c0.1-0.1,0.1-0.1,0.1-0.2c0-0.1,0-0.2-0.1-0.3l-2.3-2.3l0.9-0.9l2.6,2.6c0.1,0.1,0.2,0.1,0.3,0.1c0.1,0,0.2-0.1,0.2-0.1
		l0.7-0.7c0.1-0.1,0.1-0.1,0.1-0.2s0-0.2-0.1-0.3l-3.7-3.7c-0.1-0.1-0.2-0.1-0.3-0.1c-0.1,0-0.1,0.1-0.2,0.1l-5.1,5.1
		c-0.1,0.1-0.1,0.1-0.1,0.2c0,0.1,0,0.2,0.1,0.3L35,26c0.1,0.1,0.2,0.1,0.3,0.1C35.4,26.1,35.4,26.1,35.5,26z M30,20.5l5.1-5.1
		c0.1-0.1,0.1-0.2,0.1-0.3c0-0.1-0.1-0.2-0.1-0.2l-0.8-0.8c-0.1-0.1-0.2-0.1-0.2-0.1c-0.1,0-0.2,0-0.3,0.1L30.8,17l1.1-4.7
		c0-0.1,0-0.2,0-0.3c0-0.1,0-0.1,0-0.2c0-0.1-0.1-0.1-0.1-0.2L31,10.9c-0.1-0.1-0.2-0.1-0.3-0.1c-0.1,0-0.1,0.1-0.2,0.1l-5.1,5.1
		c-0.1,0.1-0.1,0.2-0.1,0.3c0,0.1,0.1,0.2,0.1,0.2l0.8,0.8c0.1,0.1,0.2,0.1,0.2,0.1c0.1,0,0.2,0,0.3-0.1l3-2.9L28.6,19
		c0,0.1,0,0.2-0.1,0.3c0,0.1,0,0.1,0,0.2c0,0.1,0.1,0.1,0.1,0.2l0.8,0.8c0.1,0.1,0.2,0.1,0.3,0.1C29.8,20.6,29.9,20.5,30,20.5z"/>
</g>
<g id="MouseOver" display="none">
</g>
</svg>
