<?xml version="1.0" encoding="utf-8"?>
<!-- Generator: Adobe Illustrator 18.1.1, SVG Export Plug-In . SVG Version: 6.00 Build 0)  -->
<svg version="1.1" xmlns="http://www.w3.org/2000/svg" xmlns:xlink="http://www.w3.org/1999/xlink" x="0px" y="0px"
	 viewBox="0 0 63.4 42" enable-background="new 0 0 63.4 42" xml:space="preserve">
<g id="MouseOff">
	<path fill-rule="evenodd" clip-rule="evenodd" d="M0,37.1V4.9C0,2.3,2.2,0,4.9,0h53.9c2.8,0,4.6,2.4,4.6,4.9v32.2
		c0,2.6-1.9,4.9-4.6,4.9H4.9C2.2,42,0,39.8,0,37.1z M61.4,37.1V17.9H2v19.1C2,38.7,3.3,40,4.9,40h53.9C60.2,40,61.4,38.8,61.4,37.1z
		 M8.2,33.7h5.4c1.3,0,1.3,2,0,2H8.2C6.9,35.7,6.9,33.7,8.2,33.7z M18.7,33.7h5.4c1.3,0,1.3,2,0,2h-5.4
		C17.4,35.7,17.4,33.7,18.7,33.7z M45.1,32c0-2,1.6-3.7,3.4-3.7h3.9c2.1,0,3.7,1.7,3.7,3.7s-1.7,3.7-3.7,3.7h-3.9
		C46.7,35.7,45.1,34,45.1,32z M54.2,32c0-1-0.8-1.7-1.7-1.7h-3.9c-0.6,0-1.4,0.7-1.4,1.7c0,1,0.8,1.7,1.4,1.7h3.9
		C53.4,33.7,54.2,32.9,54.2,32z M8.2,28.3h26.2c1.3,0,1.3,2,0,2H8.2C6.9,30.3,6.9,28.3,8.2,28.3z M61.4,15.9V9.5H2v6.4H61.4z
		 M61.4,7.5V4.9c0-1.7-1.2-2.9-2.6-2.9H4.9C3.3,2,2,3.4,2,4.9v2.6H61.4z"/>
</g>
<g id="MouseOver" display="none">
</g>
</svg>
