<?xml version="1.0" encoding="utf-8"?>
<!-- Generator: Adobe Illustrator 18.1.1, SVG Export Plug-In . SVG Version: 6.00 Build 0)  -->
<svg version="1.1" xmlns="http://www.w3.org/2000/svg" xmlns:xlink="http://www.w3.org/1999/xlink" x="0px" y="0px"
	 viewBox="0 0 72 42" enable-background="new 0 0 72 42" xml:space="preserve">
<g id="MouseOff">
	<path fill-rule="evenodd" clip-rule="evenodd" d="M1.6,42L0,40.4V1.6L1.6,0h68.8L72,1.6v38.8L70.4,42H61v-2h8.6l0.4-0.4V2.4L69.6,2
		H57v7.4l3.3-1.5l3,1.5V5.7h2v7l-5-2.5L55,12.6V2H2.4L2,2.4v37.2L2.4,40H53v2H1.6z M48.5,32.2c-2.9-4.7-1.4-10.9,3.3-13.7
		s10.9-1.4,13.8,3.3c2.9,4.7,1.4,10.9-3.3,13.7S51.3,36.9,48.5,32.2z M61.2,33.8c3.8-2.3,4.9-7.2,2.6-11c-2.3-3.8-7.2-4.9-11-2.6
		c-3.8,2.3-4.9,7.2-2.6,11S57.4,36.1,61.2,33.8z M9,29.3v-2h32.3v2H9z M9,24.3v-2h32.3v2H9z M9,19.3v-2h32.3v2H9z M9,14.3v-2h23v2H9
		z"/>
</g>
<g id="MouseOver" display="none">
</g>
</svg>
