<?xml version="1.0" encoding="utf-8"?>
<!-- Generator: Adobe Illustrator 18.1.1, SVG Export Plug-In . SVG Version: 6.00 Build 0)  -->
<svg version="1.1" xmlns="http://www.w3.org/2000/svg" xmlns:xlink="http://www.w3.org/1999/xlink" x="0px" y="0px"
	 viewBox="0 0 32 32" enable-background="new 0 0 32 32" xml:space="preserve">
<g id="MouseOff">
	<path fill-rule="evenodd" clip-rule="evenodd" d="M2.1,23.9C-2.3,16.2,0.4,6.4,8.1,2.1c7.7-4.3,17.5-1.6,21.8,6.1
		c4.3,7.7,1.6,17.5-6.1,21.8S6.4,31.6,2.1,23.9z M14.9,25.6c0.5-0.5,0.8-1.1,0.8-1.9c0-0.6-0.2-1.2-0.6-1.6l11.6-3.9
		c0.2-0.1,0.4-0.3,0.3-0.6c-0.1-0.3-0.3-0.4-0.6-0.3l-12.1,4.1c-0.3-0.2-0.6-0.3-0.9-0.3L8.9,7.9C8.8,7.7,8.6,7.6,8.4,7.6l-3,0.2
		C5.2,7.8,5,8,5,8.3c0,0.2,0.2,0.5,0.5,0.4l2.6-0.2c3,8.7,4,11.7,4.4,12.7c-0.5,0.1-0.9,0.4-1.3,0.7c-0.5,0.5-0.8,1.1-0.8,1.9
		s0.3,1.4,0.8,1.9s1.1,0.8,1.9,0.8C13.8,26.4,14.4,26.1,14.9,25.6z M11.8,25c-0.3-0.3-0.5-0.7-0.5-1.2c0-0.5,0.2-0.9,0.5-1.2
		c0.3-0.3,0.7-0.5,1.2-0.5c0.5,0,0.9,0.2,1.2,0.5c0.3,0.3,0.5,0.7,0.5,1.2c0,0.5-0.2,0.9-0.5,1.2c-0.3,0.3-0.7,0.5-1.2,0.5
		C12.6,25.5,12.2,25.3,11.8,25z M14.4,23.8c0-0.7-0.6-1.3-1.3-1.3c-0.8,0-1.4,0.6-1.4,1.3c0,0.8,0.6,1.4,1.4,1.4
		C13.8,25.1,14.4,24.5,14.4,23.8z M15.2,20.4L19,19c0.4-0.2,0.6-0.4,0.8-0.7c0.1-0.3,0.2-0.7,0.1-1l-3.1-8.6
		c-0.1-0.4-0.4-0.6-0.7-0.8c-0.3-0.2-0.7-0.2-1-0.1l-3.8,1.4c-0.3,0.1-0.6,0.4-0.8,0.7c-0.1,0.3-0.2,0.7,0,1l3.1,8.6
		c0.1,0.3,0.4,0.6,0.7,0.8C14.5,20.4,14.9,20.5,15.2,20.4z M21.8,17.8l3-1.1c0.3-0.1,0.5-0.3,0.6-0.5c0.1-0.3,0.1-0.6,0-0.8L23,8.5
		c-0.1-0.3-0.3-0.5-0.5-0.6c-0.2-0.1-0.5-0.1-0.8,0l-3,1.1c-0.3,0.1-0.5,0.3-0.6,0.6c-0.1,0.2-0.1,0.5,0,0.8l2.5,6.8
		c0.1,0.3,0.3,0.5,0.5,0.6C21.2,17.9,21.5,17.9,21.8,17.8z"/>
</g>
<g id="MouseOver" display="none">
</g>
</svg>
