<?xml version="1.0" encoding="utf-8"?>
<!-- Generator: Adobe Illustrator 18.1.1, SVG Export Plug-In . SVG Version: 6.00 Build 0)  -->
<svg version="1.1" xmlns="http://www.w3.org/2000/svg" xmlns:xlink="http://www.w3.org/1999/xlink" x="0px" y="0px"
	 viewBox="0 0 50 60" enable-background="new 0 0 50 60" xml:space="preserve">
<g id="MouseOff">
	<path fill-rule="evenodd" clip-rule="evenodd" d="M24.3,60l-5.7-4.7c-0.1-0.1-1.9-1.6-4.3-3.9c-1.1-1.1-2.5-2.5-3.8-4.1
		c-0.3-0.3-0.6-0.7-0.9-1.1C7,43,4.1,39,2.2,34.5C1,31.7,0,28.4,0,24.7c0-6,2.2-11.5,5.8-15.8c0.4-0.5,0.9-1.1,1.5-1.7
		c1.5-1.5,3.2-2.8,5-3.8c3.5-2,7.5-3.2,11.8-3.4c0.3,0,0.7,0,0.9,0c6.2,0,11.9,2.3,16.3,6c0.5,0.4,0.9,0.8,1.3,1.2
		c0.7,0.7,1.3,1.3,1.6,1.7c3.6,4.3,5.8,9.8,5.8,15.8c0,3.7-1,7-2.2,9.8C45.9,39,43,43,40.4,46.1c-0.3,0.4-0.7,0.8-1,1.1
		c-0.2,0.3-0.7,0.8-1.1,1.2c-3.3,3.7-6.3,6.2-6.9,6.7L31,55.6L24.3,60z"/>
</g>
<g id="MouseOver" display="none">
</g>
</svg>
