<?xml version="1.0" encoding="utf-8"?>
<!-- Generator: Adobe Illustrator 18.1.1, SVG Export Plug-In . SVG Version: 6.00 Build 0)  -->
<svg version="1.1" xmlns="http://www.w3.org/2000/svg" xmlns:xlink="http://www.w3.org/1999/xlink" x="0px" y="0px"
	 viewBox="0 0 45.5 42" enable-background="new 0 0 45.5 42" xml:space="preserve">
<g id="MouseOff">
	<path fill-rule="evenodd" clip-rule="evenodd" d="M0.2,37.8L5,23.3l0.1-0.1c0.5-1,1.4-2.1,2.9-2.1h7.2l-0.3-0.6
		c-1.9-3.3-3.5-6.9-3.5-9.3C11.4,5.1,16.6,0,22.9,0C29,0,34.1,5.1,34.1,11.2c0,2.4-1.6,6-3.4,9.3l-0.3,0.5h7.1
		c1.2,0,2.3,0.7,2.8,1.8l0.1,0.4l4.9,14.4c0.7,2-0.9,4.2-2.9,4.2H3.1C1.1,42-0.5,39.8,0.2,37.8z M43.5,38.4L38.6,24l0-0.1
		c-0.1-0.4-0.6-0.8-1-0.8h-8.3l-0.4,0.7c-2.6,4.3-5.2,7.8-5.2,7.8c-0.4,0.5-1.2,0.5-1.6,0c0,0-2.6-3.5-5.3-7.8l-0.4-0.7H8
		c-0.2,0-0.5,0.1-0.8,0.5l-0.3,0.5L2,38.4C1.8,39.1,2.5,40,3.1,40h39.3C43,40,43.7,39.1,43.5,38.4z M22.9,29.3l0.1-0.2
		c1-1.4,2.5-3.7,4.1-6.3c2.6-4.3,5-9,5-11.5c0-5-4.2-9.2-9.2-9.2c-5.2,0-9.4,4.2-9.4,9.2c0,2.5,2.4,7.2,5.1,11.5
		c1.6,2.6,3.2,5,4.2,6.3L22.9,29.3z M16.1,11.2c0-3.7,3.2-6.6,6.8-6.6c3.7,0,6.6,2.9,6.6,6.6c0,3.6-2.8,6.8-6.6,6.8
		C19.2,18,16.1,14.9,16.1,11.2z M27.4,11.2c0-2.6-2-4.6-4.6-4.6c-2.6,0-4.8,2.1-4.8,4.6c0,2.6,2.2,4.8,4.8,4.8
		C25.4,16,27.4,13.8,27.4,11.2z"/>
</g>
<g id="MouseOver" display="none">
</g>
</svg>
