<?xml version="1.0" encoding="utf-8"?>
<!-- Generator: Adobe Illustrator 18.1.1, SVG Export Plug-In . SVG Version: 6.00 Build 0)  -->
<svg version="1.1" xmlns="http://www.w3.org/2000/svg" xmlns:xlink="http://www.w3.org/1999/xlink" x="0px" y="0px"
	 viewBox="0 0 23 23" enable-background="new 0 0 23 23" xml:space="preserve">
<g id="MouseOff">
	<path fill-rule="evenodd" clip-rule="evenodd" fill="#171717" d="M0,11.6C0,5.2,5.1,0,11.5,0c2.1,0,3.8,0.5,5.6,1.5l0.4,0.3
		l-0.5,0.9l-0.4-0.3C15,1.5,13.4,1,11.5,1C5.7,1,1,5.7,1,11.6C1,17.3,5.6,22,11.5,22S22,17.3,22,11.6c0-1.9-0.5-3.5-1.4-4.9
		l-0.3-0.4l0.8-0.6l0.3,0.4c1,1.6,1.6,3.4,1.6,5.5C23,17.8,17.9,23,11.5,23S0,17.8,0,11.6z"/>
</g>
<g id="MouseOver" display="none">
</g>
</svg>
