<?xml version="1.0" encoding="utf-8"?>
<!-- Generator: Adobe Illustrator 18.1.1, SVG Export Plug-In . SVG Version: 6.00 Build 0)  -->
<svg version="1.1" xmlns="http://www.w3.org/2000/svg" xmlns:xlink="http://www.w3.org/1999/xlink" x="0px" y="0px"
	 viewBox="0 0 80 73.7" enable-background="new 0 0 80 73.7" xml:space="preserve">
<g id="MouseOff">
	<path d="M0.1,56.1c0.7-7.4,6.1-13,13.5-14.2h2.7c4.2-0.2,7.8-2.2,10-5.6c1.2-2,1.7-4.2,1.7-6.1c0-2.2-0.5-4.2-1.7-5.9
		c-1.7-2.9-2.4-6.4-2.2-9.8C24.8,6.9,30.7,0.7,38.1,0h3.7c7.6,0.7,13.5,6.9,14.2,14.4c0.2,3.4-0.5,6.9-2.4,9.8
		c-1,1.7-1.5,3.7-1.5,5.9c0,2,0.5,4.2,1.7,6.1c2,3.4,6.1,5.4,10,5.6h2.7c7.1,1.2,12.7,6.9,13.5,14.2c1,9.6-6.4,17.6-15.9,17.6
		c-5.9,0-11-3.2-13.7-7.8c-1-1.7-2.7-3.2-4.4-4.4c-1.7-1-3.7-1.5-5.9-1.5c-2.2,0-4.2,0.5-5.9,1.5c-2,1.2-3.4,2.7-4.4,4.4
		c-2.9,4.7-7.8,7.8-13.7,7.8C6.5,73.7-1.1,65.6,0.1,56.1z M21.7,57.8c0-3.2-2.7-5.6-5.6-5.6c-3.2,0-5.6,2.5-5.6,5.6
		c0,3.2,2.5,5.6,5.6,5.6C19,63.4,21.7,61,21.7,57.8z M69.6,57.8c0-3.2-2.5-5.6-5.6-5.6c-3.2,0-5.6,2.5-5.6,5.6
		c0,3.2,2.4,5.6,5.6,5.6C67.2,63.4,69.6,61,69.6,57.8z M49.6,43.3c0-5.1-4.2-9.5-9.5-9.5s-9.8,4.4-9.8,9.5c0,5.4,4.4,9.8,9.8,9.8
		S49.6,48.7,49.6,43.3z M45.6,15.9c0-3.2-2.4-5.6-5.6-5.6c-3.2,0-5.6,2.4-5.6,5.6c0,2.9,2.4,5.6,5.6,5.6
		C43.2,21.5,45.6,18.9,45.6,15.9z"/>
</g>
<g id="MouseOver" display="none">
</g>
</svg>
