<?xml version="1.0" encoding="utf-8"?>
<!-- Generator: Adobe Illustrator 18.1.1, SVG Export Plug-In . SVG Version: 6.00 Build 0)  -->
<svg version="1.1" xmlns="http://www.w3.org/2000/svg" xmlns:xlink="http://www.w3.org/1999/xlink" x="0px" y="0px"
	 viewBox="0 0 88 88" enable-background="new 0 0 88 88" xml:space="preserve">
<g id="MouseOff">
	<path d="M4.1,56.2c0.7-7.3,6.1-13,13.5-14.2c1,0,2.7,0,2.7,0c4.2-0.3,7.8-2.2,10-5.6c1.2-1.9,1.7-4.2,1.7-6.1
		c0-2.2-0.5-4.2-1.7-5.9c-1.7-2.9-2.4-6.4-2.2-9.8C28.8,7,34.7,0.9,42.1,0.2h2c0.5,0,1.2,0,1.7,0C53.3,0.9,59.2,7,59.9,14.6
		c0.3,3.4-0.5,6.9-2.4,9.8c-1,1.7-1.5,3.7-1.5,5.9c0,2,0.5,4.2,1.7,6.1c2,3.4,6.1,5.4,10,5.6c0,0,1.7,0,2.7,0
		c7.1,1.2,12.7,6.9,13.5,14.2c1,9.5-6.4,17.6-15.9,17.6c-5.9,0-11-3.2-13.7-7.8c-1-1.7-2.7-3.2-4.4-4.4c-1.7-1-3.7-1.5-5.9-1.5
		s-4.2,0.5-5.9,1.5c-2,1.2-3.4,2.7-4.4,4.4c-2.9,4.7-7.8,7.8-13.7,7.8C10.5,73.8,2.9,65.8,4.1,56.2z M31.4,58.1c0-2-0.5-3.9-1.6-5.4
		l-0.3-0.4l-0.8,0.6l0.3,0.4c0.9,1.4,1.4,3,1.4,4.9c0,5.6-4.7,10.3-10.5,10.3S9.4,63.6,9.4,58.1c0-5.8,4.7-10.5,10.5-10.5
		c1.9,0,3.5,0.5,5.1,1.4l0.4,0.2l0.5-0.9l-0.4-0.2c-1.8-1-3.6-1.5-5.6-1.5c-6.4,0-11.5,5.1-11.5,11.5c0,6.2,5.1,11.3,11.5,11.3
		S31.4,64.2,31.4,58.1z M79.5,58.1c0-2-0.5-3.9-1.5-5.4l-0.3-0.4l-0.8,0.6l0.3,0.4c0.9,1.4,1.4,3,1.4,4.9c0,5.6-4.7,10.3-10.5,10.3
		s-10.5-4.7-10.5-10.3c0-5.8,4.7-10.5,10.5-10.5c1.9,0,3.5,0.5,5.1,1.4l0.4,0.2l0.5-0.9l-0.4-0.2c-1.8-1-3.6-1.5-5.6-1.5
		c-6.4,0-11.5,5.1-11.5,11.5c0,6.2,5.1,11.3,11.5,11.3S79.5,64.2,79.5,58.1z M25.7,57.9c0-3.2-2.7-5.6-5.6-5.6
		c-3.2,0-5.6,2.4-5.6,5.6c0,3.2,2.5,5.6,5.6,5.6C23,63.6,25.7,61.1,25.7,57.9z M73.6,57.9c0-3.2-2.4-5.6-5.6-5.6s-5.6,2.4-5.6,5.6
		c0,3.2,2.4,5.6,5.6,5.6S73.6,61.1,73.6,57.9z M48.9,52.7c4.8-2.7,6.5-8.8,3.8-13.6s-8.8-6.5-13.6-3.8s-6.5,8.8-3.8,13.6
		C38,53.7,44.1,55.4,48.9,52.7z M55.5,16.2c0-2-0.5-3.9-1.6-5.4l-0.3-0.4l-0.8,0.5l0.3,0.4c0.9,1.4,1.4,3,1.4,4.9
		c0,5.6-4.7,10.3-10.5,10.3s-10.5-4.7-10.5-10.3c0-5.8,4.7-10.5,10.5-10.5c1.9,0,3.5,0.5,5.1,1.4l0.4,0.3l0.5-0.9l-0.4-0.2
		c-1.8-1-3.6-1.5-5.6-1.5c-6.4,0-11.5,5.1-11.5,11.5c0,6.2,5.1,11.3,11.5,11.3S55.5,22.4,55.5,16.2z M49.6,16.1
		c0-3.2-2.4-5.6-5.6-5.6c-3.2,0-5.6,2.4-5.6,5.6c0,2.9,2.4,5.6,5.6,5.6C47.2,21.7,49.6,19,49.6,16.1z"/>
</g>
<g id="MouseOver" display="none">
</g>
</svg>
