<?xml version="1.0" encoding="utf-8"?>
<!-- Generator: Adobe Illustrator 18.1.1, SVG Export Plug-In . SVG Version: 6.00 Build 0)  -->
<svg version="1.1" xmlns="http://www.w3.org/2000/svg" xmlns:xlink="http://www.w3.org/1999/xlink" x="0px" y="0px"
	 viewBox="0 0 22 15" enable-background="new 0 0 22 15" xml:space="preserve">
<g id="MouseOff">
	<path fill-rule="evenodd" clip-rule="evenodd" d="M0,13.3C0,0.8,0,1.7,0,1.7C0,0.8,0.6,0,1.5,0h19C21.4,0,22,0.8,22,1.7
		c0,12.5,0,11.7,0,11.7c0,1.1-0.6,1.7-1.5,1.7h-19C0.6,15,0,14.4,0,13.3z M20.5,13.3c0-12.5,0-11.7,0-11.7V1.5h-19v0.2
		c0,12.5,0,11.7,0,11.7v0.2h19V13.3z M12.1,10.2c0-1.3,1.1-2.3,2.3-2.3c0.4,0,0.8,0,1.3,0.4c0.4-0.4,0.9-0.4,1.3-0.4
		c1.3,0,2.5,1,2.5,2.3c0,1.5-1.3,2.5-2.5,2.5c-0.4,0-0.8-0.2-1.3-0.4c-0.4,0.2-0.8,0.4-1.3,0.4C13.1,12.7,12.1,11.7,12.1,10.2z
		 M15.2,11.1c0-0.2,0.2-0.2,0.4-0.2c0.2,0,0.2,0,0.4,0.2c0.2,0.2,0.4,0.2,0.8,0.2c0.6,0,1.1-0.4,1.1-1c0-0.4-0.4-1-1.1-1
		c-0.4,0-0.6,0.2-0.8,0.2c-0.2,0.2-0.2,0.4-0.4,0.4c-0.2,0-0.4-0.2-0.4-0.4c-0.2,0-0.6-0.2-0.8-0.2c-0.6,0-1.1,0.6-1.1,1
		c0,0.6,0.4,1,1.1,1C14.6,11.3,15,11.3,15.2,11.1z M3.4,4.8c0-0.2,0.2-0.6,0.6-0.6h6.3c0.2,0,0.6,0.4,0.6,0.6c0,0.4-0.4,0.8-0.6,0.8
		H4C3.6,5.6,3.4,5.2,3.4,4.8z M12.5,4.8c0-0.2,0.2-0.6,0.6-0.6h2.3c0.4,0,0.9,0.4,0.9,0.6c0,0.4-0.4,0.8-0.9,0.8h-2.3
		C12.7,5.6,12.5,5.2,12.5,4.8z"/>
</g>
<g id="MouseOver" display="none">
</g>
</svg>
