<?xml version="1.0" encoding="utf-8"?>
<!-- Generator: Adobe Illustrator 18.1.1, SVG Export Plug-In . SVG Version: 6.00 Build 0)  -->
<svg version="1.1" xmlns="http://www.w3.org/2000/svg" xmlns:xlink="http://www.w3.org/1999/xlink" x="0px" y="0px"
	 viewBox="0 0 22 15" enable-background="new 0 0 22 15" xml:space="preserve">
<g id="MouseOff">
	<path fill-rule="evenodd" clip-rule="evenodd" d="M0,13.3L0,13.3c0-0.1,0-1.1,0-11.7C0,0.6,0.6,0,1.5,0h19C21.4,0,22,0.6,22,1.7
		l0,0l0,0c0,0.1,0,1.3,0,11.7c0,0.8-0.6,1.7-1.5,1.7h-19C0.6,15,0,14.2,0,13.3z M20.5,13.5v-0.2c0-0.1,0-1.3,0-11.7V1.5h-19v0.2l0,0
		c0,0.1,0,1.3,0,11.7v0.2H20.5z M20.5,13.3L20.5,13.3L20.5,13.3z M3.4,7.7c0-0.4,0.4-0.8,0.9-0.8h2.3c0.4,0,0.6,0.4,0.6,0.8
		c0,0.2-0.2,0.6-0.6,0.6H4.2C3.8,8.3,3.4,7.9,3.4,7.7z M8.7,7.7c0-0.4,0.4-0.8,0.6-0.8h8c0.4,0,0.6,0.4,0.6,0.8
		c0,0.2-0.2,0.6-0.6,0.6h-8C9.1,8.3,8.7,7.9,8.7,7.7z M3.4,4.4C3.4,4,3.6,3.5,4,3.5h8c0.2,0,0.6,0.4,0.6,0.8c0,0.2-0.4,0.6-0.6,0.6
		H4C3.6,5,3.4,4.6,3.4,4.4z M14.2,4.4c0-0.4,0.2-0.8,0.6-0.8h2.3C17.5,3.5,18,4,18,4.4C18,4.6,17.5,5,17.1,5h-2.3
		C14.4,5,14.2,4.6,14.2,4.4z M1.5,1.7L1.5,1.7L1.5,1.7z"/>
</g>
<g id="MouseOver" display="none">
</g>
</svg>
