<?xml version="1.0" encoding="utf-8"?>
<!-- Generator: Adobe Illustrator 18.1.1, SVG Export Plug-In . SVG Version: 6.00 Build 0)  -->
<svg version="1.1" xmlns="http://www.w3.org/2000/svg" xmlns:xlink="http://www.w3.org/1999/xlink" x="0px" y="0px"
	 viewBox="0 0 10.8 12.8" enable-background="new 0 0 10.8 12.8" xml:space="preserve">
<g id="MouseOff">
	<path fill-rule="evenodd" clip-rule="evenodd" d="M1.6,12.8v-2.4H0V9.1h1.6V0h4.9c1.4,0,2.4,0.3,3.2,1.1c0.7,0.7,1.1,1.6,1.1,2.8
		c0,1.2-0.4,2.1-1.1,2.8c-0.8,0.7-1.8,1-3.2,1H3.3v1.4H8v1.4H3.3v2.4H1.6z M8.4,5.6c0.4-0.5,0.6-1.1,0.6-1.8S8.9,2.5,8.4,2.1
		C8,1.6,7.4,1.4,6.5,1.4H3.3v4.9h3.2C7.4,6.3,8,6.1,8.4,5.6z"/>
</g>
<g id="MouseOver" display="none">
</g>
</svg>
