<?xml version="1.0" encoding="utf-8"?>
<!-- Generator: Adobe Illustrator 18.1.1, SVG Export Plug-In . SVG Version: 6.00 Build 0)  -->
<svg version="1.1" xmlns="http://www.w3.org/2000/svg" xmlns:xlink="http://www.w3.org/1999/xlink" x="0px" y="0px"
	 viewBox="0 0 20 18" enable-background="new 0 0 20 18" xml:space="preserve">
<g id="MouseOff">
	<path fill-rule="evenodd" clip-rule="evenodd" d="M5.8,16.3c0-0.9,0.7-1.7,1.7-1.7s1.7,0.7,1.7,1.7S8.4,18,7.5,18
		S5.8,17.2,5.8,16.3z M13.1,16.3c0-0.9,0.7-1.7,1.7-1.7s1.7,0.7,1.7,1.7S15.6,18,14.7,18S13.1,17.2,13.1,16.3z M5.4,12.9
		c0,0-1.1-8.3-1.2-8.8C4.2,3.6,3.6,3.3,3.6,3.3L0.9,2c-1.5-0.8-0.8-2.3,0-1.9c3.4,1.6,5,2.5,5.1,3.1c0.1,0.7,0.3,2.2,0.3,2.2
		l0.2,1.7l0.6,5h9.3l0.5-1.7H8.3c0,0-0.6-0.2-0.6-0.8c0-0.6,0.6-0.8,0.6-0.8h9l0.5-1.8H8.7c0,0-0.6-0.2-0.6-0.9
		c0-0.7,0.6-0.8,0.6-0.8H19c1.5,0,0.9,1.6,0.9,1.6l-2.1,6.2c0,0-0.2,0.9-1,0.9H6.5C5.5,14.1,5.4,12.9,5.4,12.9z"/>
</g>
<g id="MouseOver" display="none">
</g>
</svg>
