<?xml version="1.0" encoding="utf-8"?>
<!-- Generator: Adobe Illustrator 18.1.1, SVG Export Plug-In . SVG Version: 6.00 Build 0)  -->
<svg version="1.1" xmlns="http://www.w3.org/2000/svg" xmlns:xlink="http://www.w3.org/1999/xlink" x="0px" y="0px"
	 viewBox="0 0 25 14" enable-background="new 0 0 25 14" xml:space="preserve">
<g id="MouseOff">
	<path fill-rule="evenodd" clip-rule="evenodd" d="M8.2,12.9c-1.5-0.8-2.5-2-3.5-3.3C2.8,7.1,1.4,4.3,0.1,1.5c-0.3-0.6-0.1-1,0.6-1
		h3.6c0.5,0,0.8,0.3,1.1,0.7c0.7,1.6,1.4,3,2.4,4.5C8,6,8.2,6.4,8.7,6.6c0.4,0.2,0.7,0.2,0.9-0.3c0.2-0.2,0.3-0.6,0.3-0.9
		c0.1-1.1,0.1-2.2-0.1-3.3C9.6,1.5,9.2,1,8.6,1C8.2,0.9,8.2,0.7,8.4,0.6C8.7,0.2,9,0,9.5,0h4.1c0.7,0.2,0.8,0.4,0.9,1v4.6
		c0,0.2,0.1,1,0.6,1.1c0.4,0.2,0.6-0.2,0.8-0.4c1-1,1.7-2.2,2.4-3.5c0.2-0.6,0.5-1.1,0.7-1.7c0.2-0.5,0.5-0.6,1-0.6h4.3
		c0.6,0.1,0.8,0.4,0.6,1c-0.3,1-1,1.8-1.6,2.7c-0.7,0.9-1.4,1.8-2,2.6c-0.6,0.9-0.5,1.3,0.2,2c0.8,0.8,1.7,1.6,2.4,2.5
		c0.3,0.3,0.7,0.7,0.9,1.2c0.3,0.6,0,1.3-0.6,1.4h-3.7c-1,0.1-1.7-0.3-2.3-1c-0.5-0.5-1-1-1.5-1.6c-0.2-0.2-0.4-0.4-0.6-0.6
		c-0.5-0.3-0.9-0.2-1.2,0.3c-0.3,0.5-0.3,1-0.3,1.7c-0.1,0.8-0.3,1-1.2,1.1C11.6,14.1,9.9,13.7,8.2,12.9z"/>
</g>
<g id="MouseOver" display="none">
</g>
</svg>
