<?xml version="1.0" encoding="utf-8"?>
<!-- Generator: Adobe Illustrator 18.1.1, SVG Export Plug-In . SVG Version: 6.00 Build 0)  -->
<svg version="1.1" xmlns="http://www.w3.org/2000/svg" xmlns:xlink="http://www.w3.org/1999/xlink" x="0px" y="0px"
	 viewBox="0 0 20 20" enable-background="new 0 0 20 20" xml:space="preserve">
<g id="MouseOff">
	<path fill-rule="evenodd" clip-rule="evenodd" d="M0,14.3V5.7C0,2.5,2.6,0,5.7,0h8.6C17.5,0,20,2.5,20,5.7v8.6
		c0,3.1-2.5,5.7-5.7,5.7H5.7C2.6,20,0,17.4,0,14.3z M18.3,14.3V5.7c0-2.2-1.8-4-4-4H5.7c-2.2,0-4,1.8-4,4v8.6c0,2.2,1.8,4,4,4h8.6
		C16.5,18.3,18.3,16.5,18.3,14.3z M4.9,10c0-2.8,2.3-5.1,5.1-5.1c2.8,0,5.1,2.3,5.1,5.1c0,2.9-2.3,5.1-5.1,5.1
		C7.2,15.1,4.9,12.8,4.9,10z M13.4,10c0-1.9-1.5-3.4-3.4-3.4c-1.9,0-3.4,1.5-3.4,3.4c0,1.9,1.5,3.4,3.4,3.4
		C11.9,13.4,13.4,11.9,13.4,10z M14.1,4.6c0-0.7,0.5-1.2,1.2-1.2c0.7,0,1.3,0.5,1.3,1.2c0,0.7-0.5,1.2-1.3,1.2
		C14.6,5.8,14.1,5.3,14.1,4.6z"/>
</g>
<g id="MouseOver" display="none">
</g>
</svg>
